<svg width="18" height="18" viewBox="0 0 18 18" fill="none" xmlns="http://www.w3.org/2000/svg">
<path d="M8.99935 0.747681C4.40768 0.747681 0.666016 4.48935 0.666016 9.08101C0.666016 13.6727 4.40768 17.4143 8.99935 17.4143C13.591 17.4143 17.3327 13.6727 17.3327 9.08101C17.3327 4.48935 13.591 0.747681 8.99935 0.747681ZM12.3327 9.91435H9.83268V12.4143C9.83268 12.8727 9.45768 13.2477 8.99935 13.2477C8.54102 13.2477 8.16602 12.8727 8.16602 12.4143V9.91435H5.66602C5.20768 9.91435 4.83268 9.53935 4.83268 9.08101C4.83268 8.62268 5.20768 8.24768 5.66602 8.24768H8.16602V5.74768C8.16602 5.28935 8.54102 4.91435 8.99935 4.91435C9.45768 4.91435 9.83268 5.28935 9.83268 5.74768V8.24768H12.3327C12.791 8.24768 13.166 8.62268 13.166 9.08101C13.166 9.53935 12.791 9.91435 12.3327 9.91435Z" fill="black"/>
</svg>
