<svg width="18" height="18" viewBox="0 0 18 18" fill="none" xmlns="http://www.w3.org/2000/svg">
<path d="M8.99935 0.748047C4.40768 0.748047 0.666016 4.48971 0.666016 9.08138C0.666016 13.673 4.40768 17.4147 8.99935 17.4147C13.591 17.4147 17.3327 13.673 17.3327 9.08138C17.3327 4.48971 13.591 0.748047 8.99935 0.748047ZM12.091 8.00638L8.75768 11.3397C8.59102 11.498 8.38268 11.5814 8.16602 11.5814C7.94935 11.5814 7.74102 11.498 7.57435 11.3397L5.90768 9.67305C5.58268 9.34805 5.58268 8.82305 5.90768 8.49805C6.23268 8.17305 6.75768 8.17305 7.08268 8.49805L8.16602 9.57305L10.9077 6.83138C11.2327 6.50638 11.7577 6.50638 12.0827 6.83138C12.4077 7.15638 12.416 7.68138 12.091 8.00638Z" fill="#00A877"/>
</svg>
