<svg width="18" height="14" viewBox="0 0 18 14" fill="none" xmlns="http://www.w3.org/2000/svg">
<path d="M8.36667 7.7724C8.73333 8.13906 9.26667 8.13906 9.59167 7.81406L16.8833 1.48073C16.425 0.839063 15.6833 0.414062 14.8333 0.414062H3.16667C2.325 0.414062 1.575 0.839063 1.125 1.48073L8.36667 7.7724Z" fill="#0EA0CE"/>
<path d="M10.7243 9.03073C10.266 9.48906 9.64102 9.73073 9.01602 9.73073C8.37435 9.73073 7.72435 9.48906 7.23268 8.9974L0.666016 3.28906V11.2474C0.666016 12.6224 1.79102 13.7474 3.16602 13.7474H14.8327C16.2077 13.7474 17.3327 12.6224 17.3327 11.2474V3.2974L10.7243 9.03073Z" fill="#0EA0CE"/>
</svg>
