<svg width="20" height="21" viewBox="0 0 20 21" fill="none" xmlns="http://www.w3.org/2000/svg">
<path d="M9.99935 2.16699C5.40768 2.16699 1.66602 5.90866 1.66602 10.5003C1.66602 15.092 5.40768 18.8337 9.99935 18.8337C14.591 18.8337 18.3327 15.092 18.3327 10.5003C18.3327 5.90866 14.591 2.16699 9.99935 2.16699ZM12.9493 13.4503C12.7827 13.617 12.5743 13.692 12.3577 13.692C12.141 13.692 11.9327 13.6087 11.766 13.4503L9.40768 11.092C9.25768 10.9337 9.16602 10.7253 9.16602 10.5003V7.16699C9.16602 6.70866 9.54102 6.33366 9.99935 6.33366C10.4577 6.33366 10.8327 6.70866 10.8327 7.16699V10.1587L12.9493 12.2753C13.2743 12.592 13.2743 13.117 12.9493 13.4503Z" fill="#A7A7A7"/>
</svg>
