<svg width="16" height="18" viewBox="0 0 16 18" fill="none" xmlns="http://www.w3.org/2000/svg">
<path d="M14.2992 3.99792L9.24922 1.08125C8.47422 0.639583 7.52422 0.639583 6.74922 1.08125L1.69922 3.99792C0.924219 4.43958 0.449219 5.27292 0.449219 6.16458V11.9979C0.449219 12.8896 0.932552 13.7229 1.69922 14.1646L6.74922 17.0813C7.13255 17.3063 7.56589 17.4146 7.99922 17.4146C8.43255 17.4146 8.86589 17.3063 9.24922 17.0813L14.2992 14.1646C15.0742 13.7229 15.5492 12.8896 15.5492 11.9979V6.16458C15.5492 5.27292 15.0742 4.43958 14.2992 3.99792ZM7.99922 12.4146C6.15755 12.4146 4.66589 10.9229 4.66589 9.08125C4.66589 7.23958 6.15755 5.74792 7.99922 5.74792C9.84089 5.74792 11.3326 7.23958 11.3326 9.08125C11.3326 10.9229 9.84089 12.4146 7.99922 12.4146Z" fill="#0EA0CE"/>
</svg>
