<svg width="18" height="18" viewBox="0 0 18 18" fill="none" xmlns="http://www.w3.org/2000/svg">
<path d="M16.4332 12.0814L13.9332 10.3064C13.5249 10.0314 13.0666 9.78138 12.4832 9.77305C11.6166 9.77305 10.9999 10.4064 10.5499 10.8647C10.5166 10.898 10.4916 10.923 10.4666 10.9564C9.30824 10.1814 7.95824 8.83138 7.10824 7.59805C7.12491 7.58138 7.14157 7.56471 7.16657 7.53971C7.55824 7.13971 7.87491 6.81471 8.00824 6.53971C8.46657 5.81471 8.37491 4.98971 7.73324 4.09805L5.99157 1.65638C5.59157 1.08971 4.94157 0.75638 4.20824 0.748047H4.10824C2.88324 0.873047 1.87491 1.54805 1.27491 2.63971C0.466572 4.11471 0.474906 6.18971 1.29157 7.79805C3.46657 12.223 7.93324 16.9147 13.0666 17.4147C13.0999 17.4147 13.1332 17.4147 13.1666 17.4147C15.0916 17.4147 17.1916 16.0147 17.3082 13.873V13.8147C17.2999 12.8647 16.8166 12.3397 16.4332 12.0814Z" fill="#0EA0CE"/>
</svg>
