<svg width="18" height="18" viewBox="0 0 18 18" fill="none" xmlns="http://www.w3.org/2000/svg">
<path fill-rule="evenodd" clip-rule="evenodd" d="M4.83268 0.748047H13.166C15.466 0.748047 17.3327 2.61471 17.3327 4.91471V13.248C17.3327 15.548 15.466 17.4147 13.166 17.4147H4.83268C2.53268 17.4147 0.666016 15.548 0.666016 13.248V4.91471C0.666016 2.61471 2.53268 0.748047 4.83268 0.748047ZM5.5 1.99528H12.5C14.432 1.99528 16 3.56328 16 5.49528V11.7963C15.7602 11.8677 15.5298 11.9856 15.3221 12.1518L14.0335 13.1826C13.095 13.9335 11.7108 13.6928 11.0808 12.6691L9.43799 9.99948C8.91829 9.15497 7.85828 8.81877 6.94685 9.20938L2.59431 11.0747C2.36665 11.1723 2.15686 11.3105 2 11.4905V5.49528C2 3.56328 3.568 1.99528 5.5 1.99528ZM14.5986 7.05628C14.5986 8.08721 13.7628 8.92295 12.7319 8.92295C11.701 8.92295 10.8652 8.08721 10.8652 7.05628C10.8652 6.02535 11.701 5.18961 12.7319 5.18961C13.7628 5.18961 14.5986 6.02535 14.5986 7.05628Z" fill="#0EA0CE"/>
</svg>
