<svg width="20" height="20" viewBox="0 0 20 20" fill="none" xmlns="http://www.w3.org/2000/svg">
<path d="M17.6012 6.00034C17.4013 6.00034 17.3013 5.88034 17.2614 5.80034C17.2214 5.73034 17.1614 5.58034 17.2614 5.41034C17.921 4.27034 17.5312 2.80034 16.3818 2.14034L13.5932 0.530337C13.0435 0.210337 12.3938 0.130337 11.7741 0.290337C11.1544 0.460337 10.6447 0.850338 10.3248 1.40034C10.2249 1.57034 10.075 1.60034 9.98501 1.60034C9.89505 1.60034 9.74513 1.57034 9.64518 1.40034C9.32534 0.850338 8.81559 0.450337 8.1959 0.280337C7.58621 0.130337 6.94653 0.220337 6.38681 0.540337L3.6082 2.14034C2.46877 2.80034 2.06897 4.27034 2.72864 5.41034C2.82859 5.58034 2.76862 5.73034 2.72864 5.80034C2.68866 5.88034 2.58871 6.00034 2.38881 6.00034C1.06947 6.00034 0 7.07034 0 8.39034V11.6003C0 12.9303 1.06947 14.0003 2.38881 14.0003C2.58871 14.0003 2.68866 14.1203 2.72864 14.2003C2.76862 14.2703 2.82859 14.4203 2.72864 14.5903C2.06897 15.7303 2.45877 17.2003 3.6082 17.8603L6.3968 19.4703C6.94653 19.7903 7.5962 19.8703 8.21589 19.7103C8.83558 19.5403 9.34533 19.1503 9.66517 18.6003C9.76512 18.4303 9.91504 18.4003 10.005 18.4003C10.095 18.4003 10.2449 18.4303 10.3448 18.6003C10.6647 19.1503 11.1744 19.5503 11.7941 19.7103C12.004 19.7603 12.2139 19.7903 12.4138 19.7903C12.8336 19.7903 13.2334 19.6803 13.6032 19.4703L16.3918 17.8603C17.5312 17.2003 17.931 15.7303 17.2714 14.5903C17.1714 14.4203 17.2314 14.2703 17.2714 14.2003C17.3113 14.1303 17.4113 14.0003 17.6112 14.0003C18.9305 14.0003 20 12.9303 20 11.6103V8.40034C19.99 7.07034 18.9205 6.00034 17.6012 6.00034ZM9.995 14.0003C7.78611 14.0003 5.997 12.2103 5.997 10.0003C5.997 7.79034 7.78611 6.00034 9.995 6.00034C12.2039 6.00034 13.993 7.79034 13.993 10.0003C13.993 12.2103 12.2039 14.0003 9.995 14.0003Z" fill="#0EA0CE"/>
</svg>
