<svg width="10" height="10" viewBox="0 0 10 10" fill="none" xmlns="http://www.w3.org/2000/svg">
<g clip-path="url(#clip0_988_5472)">
<path d="M8.79486 5.22081C9.13236 4.89164 9.2532 4.40831 9.10736 3.95831C8.96153 3.50831 8.58236 3.18748 8.11153 3.12081L6.93236 2.94998C6.8032 2.93331 6.6907 2.84998 6.63236 2.73331L6.1032 1.66248C5.89486 1.23748 5.46986 0.974976 4.99903 0.974976C4.5282 0.974976 4.1032 1.24164 3.89486 1.66248L3.3657 2.73331C3.30736 2.84998 3.19903 2.93331 3.0657 2.94998L1.88653 3.12081C1.41986 3.18748 1.0407 3.51248 0.894862 3.95831C0.749029 4.40831 0.869862 4.89164 1.20736 5.22081L2.06153 6.05414C2.15736 6.14581 2.19903 6.27914 2.1782 6.40831L1.96986 7.58331C1.8907 8.04998 2.0782 8.50831 2.46153 8.78748C2.6782 8.94581 2.9282 9.02497 3.18236 9.02497C3.3782 9.02497 3.57403 8.97914 3.75736 8.88331L4.81153 8.32914C4.9282 8.26664 5.0657 8.26664 5.18236 8.32914L6.23653 8.88331C6.6532 9.10414 7.1532 9.06664 7.53236 8.79164C7.9157 8.51248 8.1032 8.05414 8.02403 7.58747L7.82403 6.41248C7.8032 6.28331 7.84486 6.14998 7.9407 6.05831L8.79486 5.22081Z" fill="black"/>
</g>
<defs>
<clipPath id="clip0_988_5472">
<rect width="10" height="10" fill="white"/>
</clipPath>
</defs>
</svg>
