<svg width="18" height="18" viewBox="0 0 18 18" fill="none" xmlns="http://www.w3.org/2000/svg">
<path d="M16.4077 7.22305L15.6827 6.67305C15.491 6.53138 15.391 6.28971 15.4243 6.04805L15.5493 5.14805C15.6493 4.41471 15.4077 3.69805 14.891 3.18138C14.3743 2.66471 13.6577 2.42305 12.9243 2.52305L12.0243 2.64805C11.791 2.68138 11.5493 2.58138 11.3993 2.38971L10.8493 1.66471C10.416 1.08138 9.73268 0.748047 8.99935 0.748047C8.26602 0.748047 7.58268 1.08138 7.14102 1.67305L6.59102 2.38971C6.44935 2.58138 6.21602 2.68971 5.97435 2.64805L5.07435 2.53138C4.34102 2.42305 3.62435 2.66471 3.10768 3.18971C2.58268 3.70638 2.34102 4.42305 2.44935 5.15638L2.57435 6.05638C2.59935 6.28971 2.49935 6.53138 2.30768 6.67305L1.59102 7.22305C0.999349 7.66471 0.666016 8.34805 0.666016 9.08138C0.666016 9.81471 0.999349 10.498 1.59102 10.9397L2.31602 11.4897C2.50768 11.6314 2.60768 11.873 2.57435 12.1147L2.44935 13.0147C2.34935 13.748 2.59102 14.4647 3.10768 14.9814C3.62435 15.498 4.34102 15.748 5.07435 15.6397L5.97435 15.5147C6.21602 15.4814 6.44935 15.5814 6.59935 15.773L7.14935 16.498C7.58268 17.0814 8.26602 17.4147 8.99935 17.4147C9.73268 17.4147 10.416 17.0814 10.8577 16.4897L11.4077 15.7647C11.5493 15.573 11.791 15.473 12.0327 15.5064L12.9327 15.6314C13.666 15.7397 14.3827 15.4897 14.8993 14.973C15.416 14.4564 15.6577 13.7397 15.5577 13.0064L15.4327 12.1064C15.3993 11.8647 15.4993 11.6314 15.691 11.4814L16.416 10.9314C16.9993 10.498 17.3327 9.81471 17.3327 9.08138C17.3327 8.34805 16.9993 7.66471 16.4077 7.22305ZM12.091 8.00638L8.75768 11.3397C8.59102 11.498 8.38268 11.5814 8.16602 11.5814C7.94935 11.5814 7.74102 11.498 7.57435 11.3397L5.90768 9.67305C5.58268 9.34805 5.58268 8.82305 5.90768 8.49805C6.23268 8.17305 6.75768 8.17305 7.08268 8.49805L8.16602 9.57305L10.9077 6.83138C11.2327 6.50638 11.7577 6.50638 12.0827 6.83138C12.4077 7.15638 12.416 7.68138 12.091 8.00638Z" fill="#0EA0CE"/>
</svg>
