<svg width="56" height="161" viewBox="0 0 56 161" fill="none" xmlns="http://www.w3.org/2000/svg">
<rect y="0.43457" width="56" height="160" rx="28" fill="white"/>
<path d="M35 27.4346C35 31.3006 31.866 34.4346 28 34.4346C24.134 34.4346 21 31.3006 21 27.4346C21 23.5686 24.134 20.4346 28 20.4346C31.866 20.4346 35 23.5686 35 27.4346Z" stroke="#454545" stroke-width="2"/>
<circle cx="28" cy="27.4346" r="4" fill="#454545"/>
<path d="M28 48.7679C26.5272 48.7679 25.3333 49.9618 25.3333 51.4346C25.3333 52.9073 26.5272 54.1012 28 54.1012C29.4728 54.1012 30.6667 52.9073 30.6667 51.4346C30.6667 49.9618 29.4728 48.7679 28 48.7679ZM28 109.435L30.8867 104.435L25.1132 104.435L28 109.435ZM27.5 51.4346L27.5 52.4012L28.5 52.4012L28.5 51.4346L27.5 51.4346ZM27.5 54.3346L27.5 56.2679L28.5 56.2679L28.5 54.3346L27.5 54.3346ZM27.5 58.2012L27.5 60.1346L28.5 60.1346L28.5 58.2012L27.5 58.2012ZM27.5 62.0679L27.5 64.0012L28.5 64.0012L28.5 62.0679L27.5 62.0679ZM27.5 65.9346L27.5 67.8679L28.5 67.8679L28.5 65.9346L27.5 65.9346ZM27.5 69.8012L27.5 71.7346L28.5 71.7346L28.5 69.8012L27.5 69.8012ZM27.5 73.6679L27.5 75.6012L28.5 75.6012L28.5 73.6679L27.5 73.6679ZM27.5 77.5346L27.5 79.4679L28.5 79.4679L28.5 77.5346L27.5 77.5346ZM27.5 81.4012L27.5 83.3346L28.5 83.3346L28.5 81.4012L27.5 81.4012ZM27.5 85.2679L27.5 87.2012L28.5 87.2012L28.5 85.2679L27.5 85.2679ZM27.5 89.1346L27.5 91.0679L28.5 91.0679L28.5 89.1346L27.5 89.1346ZM27.5 93.0012L27.5 94.9346L28.5 94.9346L28.5 93.0012L27.5 93.0012ZM27.5 96.8679L27.5 98.8012L28.5 98.8012L28.5 96.8679L27.5 96.8679ZM27.5 100.735L27.5 102.668L28.5 102.668L28.5 100.735L27.5 100.735ZM27.5 104.601L27.5 106.535L28.5 106.535L28.5 104.601L27.5 104.601Z" fill="#454545"/>
<path d="M28 123.435C23.59 123.435 20 127.025 20 131.435C20 135.645 24 139.935 28 143.435C32 139.935 36 135.645 36 131.435C36 127.025 32.41 123.435 28 123.435ZM28 135.435C25.79 135.435 24 133.645 24 131.435C24 129.225 25.79 127.435 28 127.435C30.21 127.435 32 129.225 32 131.435C32 133.645 30.21 135.435 28 135.435Z" fill="#454545"/>
</svg>
