<svg width="24" height="24" viewBox="0 0 24 24" fill="none" xmlns="http://www.w3.org/2000/svg">
<path d="M11.7051 11.1533C12.411 11.1533 12.8304 11.2896 13.1602 11.5596C13.4195 11.772 13.6414 12.0807 13.8916 12.5264L14.1533 13.0195C14.1995 13.11 14.2866 13.2435 14.376 13.3857C14.4704 13.5359 14.5819 13.7161 14.6943 13.9219C14.8919 14.2835 15.0883 14.7168 15.2002 15.1875L15.2432 15.3906C15.358 16.0337 15.1447 16.666 14.7598 17.1133C14.4215 17.5064 13.9712 17.7356 13.5205 17.7275L13.3281 17.71C13.0366 17.6597 12.7787 17.552 12.5156 17.4443C12.2698 17.3437 11.9863 17.2266 11.7051 17.2266C11.5363 17.2266 11.3522 17.26 11.1719 17.3027C10.9912 17.3456 10.7928 17.4037 10.5986 17.457C10.1981 17.5671 9.79448 17.6653 9.41602 17.6621L9.26465 17.6494C8.9136 17.5929 8.57862 17.3532 8.33301 16.9854C8.08863 16.6193 7.95294 16.1525 7.98535 15.6904L8.00977 15.4932C8.08635 15.0635 8.28047 14.7011 8.48633 14.3896C8.5907 14.2318 8.69233 14.0955 8.78711 13.9619C8.85365 13.8681 8.92132 13.7694 8.97363 13.6729L9.01953 13.5771C9.28527 12.9524 9.63187 12.3397 10.0781 11.8867C10.5199 11.4384 11.0515 11.1533 11.7051 11.1533ZM15.335 11.752C15.7142 10.8902 16.5019 10.6202 17.0654 10.9629C17.6678 11.3295 17.9338 12.3142 17.5508 13.1846C17.1715 14.0465 16.3829 14.3156 15.8193 13.9727C15.2172 13.6059 14.952 12.6222 15.335 11.752ZM7.14941 9.01465C7.80204 8.7242 8.61371 9.11598 8.91504 10.0518C9.21883 10.9958 8.8262 11.979 8.14062 12.2842C7.4879 12.5747 6.67622 12.1822 6.375 11.2461C6.07144 10.3022 6.46399 9.31987 7.14941 9.01465ZM13.1318 8.62891C13.3492 7.60835 14.1272 7.09527 14.7783 7.28711C15.457 7.48726 15.9414 8.41311 15.7236 9.43555C15.5062 10.4561 14.7283 10.9682 14.0771 10.7764C13.3984 10.5763 12.9141 9.65142 13.1318 8.62891ZM10.7188 6.27441C11.0804 6.24983 11.4371 6.42116 11.7207 6.75879C12.0047 7.09689 12.2034 7.5909 12.2314 8.16211C12.2594 8.73311 12.1103 9.25258 11.8594 9.62988C11.6081 10.0075 11.2672 10.2273 10.9043 10.252C10.5427 10.2765 10.1859 10.1052 9.90234 9.76758C9.61858 9.42955 9.42071 8.93609 9.39258 8.36523C9.3645 7.79406 9.51264 7.27389 9.76367 6.89648C10.0148 6.51899 10.3559 6.29921 10.7188 6.27441Z" stroke="#454545" stroke-width="0.543585"/>
<circle cx="12" cy="12" r="9.5" stroke="#454545"/>
</svg>
