<svg width="24" height="24" viewBox="0 0 24 24" fill="none" xmlns="http://www.w3.org/2000/svg">
<path d="M9.89258 16.4639L8.71387 17.8379C8.67713 17.8805 8.61979 17.8949 8.56934 17.8789L8.52148 17.8525L6.38965 16.0215C6.34686 15.9847 6.33262 15.9275 6.34863 15.877L6.375 15.8291L7.55371 14.4551L9.89258 16.4639ZM12.7744 14.21L10.9727 16.3096C10.9505 16.3354 10.9199 16.3488 10.8887 16.3535L10.9355 16.2998L10.6768 16.0771L7.81836 13.623L7.58105 13.4199L7.58984 13.4053L9.3916 11.3057L12.7744 14.21ZM13.8789 12.0049L13.4785 12.4727C13.4418 12.5152 13.3844 12.5296 13.334 12.5137L13.2861 12.4873L10.9727 10.5C10.93 10.4632 10.9155 10.406 10.9316 10.3555L10.958 10.3076L11.3584 9.84082L13.8789 12.0049ZM13.2354 6.88184L13.4941 7.10449L16.3066 9.51953L16.5664 9.74219L16.6123 9.6875C16.6123 9.7016 16.6127 9.71587 16.6084 9.72949L16.5811 9.77637L14.8555 11.7852L14.6621 11.6191L11.6221 9.00977L11.4727 8.88184L13.1982 6.87207C13.2203 6.84644 13.2503 6.83198 13.2812 6.82715L13.2354 6.88184ZM15.5625 5.34863L15.6104 5.375L17.6973 7.16602C17.7401 7.20279 17.7544 7.26093 17.7383 7.31152L17.7119 7.35938L16.5703 8.68652L14.2773 6.7168L15.418 5.38965C15.4548 5.34686 15.5119 5.33249 15.5625 5.34863Z" stroke="#454545" stroke-width="0.683726"/>
<circle cx="12" cy="12" r="9.5" stroke="#454545"/>
<line x1="4.35355" y1="5.64645" x2="17.6869" y2="18.9798" stroke="#454545"/>
</svg>
