<svg width="24" height="24" viewBox="0 0 24 24" fill="none" xmlns="http://www.w3.org/2000/svg">
<path d="M9.52148 17.4785C9.85764 17.4785 10.1308 17.7508 10.1309 18.0869C10.1309 18.4231 9.85766 18.6953 9.52148 18.6953C9.18543 18.6952 8.91309 18.423 8.91309 18.0869C8.91311 17.7508 9.18544 17.4787 9.52148 17.4785ZM13.7822 17.4785C14.1184 17.4785 14.3916 17.7508 14.3916 18.0869C14.3916 18.4231 14.1184 18.6953 13.7822 18.6953C13.4462 18.6951 13.1738 18.423 13.1738 18.0869C13.1739 17.7509 13.4462 17.4787 13.7822 17.4785ZM9.21777 8.34766H14.0869C14.5911 8.34766 14.9999 8.75654 15 9.26074V15.9561C15 16.4603 14.5912 16.8691 14.0869 16.8691H9.21777C8.71351 16.8691 8.30469 16.4603 8.30469 15.9561V9.26074C8.30476 8.75654 8.71356 8.34766 9.21777 8.34766ZM12.5654 6.52148V7.73926H10.7393V6.52148H12.5654Z" stroke="#454545" stroke-width="0.608696"/>
<circle cx="12" cy="12" r="9.5" stroke="#454545"/>
</svg>
