<svg width="13" height="13" viewBox="0 0 13 13" fill="none" xmlns="http://www.w3.org/2000/svg">
<path d="M6.50003 0.324463C4.64721 0.324463 3.13892 1.86019 3.13892 3.74669C3.13892 5.54763 4.81947 7.3828 6.50003 8.88002C8.18058 7.3828 9.86114 5.54763 9.86114 3.74669C9.86114 1.86019 8.35284 0.324463 6.50003 0.324463ZM6.50003 5.4578C5.57152 5.4578 4.81947 4.69207 4.81947 3.74669C4.81947 2.8013 5.57152 2.03557 6.50003 2.03557C7.42853 2.03557 8.18058 2.8013 8.18058 3.74669C8.18058 4.69207 7.42853 5.4578 6.50003 5.4578Z" fill="white"/>
<path d="M9.25 8.9855C10.894 9.31543 12 9.93209 12 10.6384C12 11.6922 9.53757 12.5465 6.5 12.5465C3.46243 12.5465 1 11.6922 1 10.6384C1 9.84773 2.38604 9.1694 4.36111 8.87988" stroke="white" stroke-width="0.611111" stroke-linecap="round"/>
</svg>
