<svg width="16" height="107" viewBox="0 0 16 107" fill="none" xmlns="http://www.w3.org/2000/svg">
<path d="M8 16.5C3.59 16.5 0 12.91 0 8.5C0 4.09 3.59 0.5 8 0.5C12.41 0.5 16 4.09 16 8.5C16 12.91 12.41 16.5 8 16.5ZM8 2.5C4.69 2.5 2 5.19 2 8.5C2 11.81 4.69 14.5 8 14.5C11.31 14.5 14 11.81 14 8.5C14 5.19 11.31 2.5 8 2.5Z" fill="white"/>
<path d="M8 12.5C10.2091 12.5 12 10.7091 12 8.5C12 6.29086 10.2091 4.5 8 4.5C5.79086 4.5 4 6.29086 4 8.5C4 10.7091 5.79086 12.5 8 12.5Z" fill="white"/>
<path d="M5.33 20.5C5.33 21.97 6.52 23.17 8 23.17C9.48 23.17 10.67 21.98 10.67 20.5C10.67 19.02 9.48 17.83 8 17.83C6.52 17.83 5.33 19.02 5.33 20.5ZM8 84.5L10.89 79.5H5.12L8.01 84.5H8ZM7.5 20.5V21.5H8.5V20.5H7.5ZM7.5 23.5V25.5H8.5V23.5H7.5ZM7.5 27.5V29.5H8.5V27.5H7.5ZM7.5 31.5V33.5H8.5V31.5H7.5ZM7.5 35.5V37.5H8.5V35.5H7.5ZM7.5 39.5V41.5H8.5V39.5H7.5ZM7.5 43.5V45.5H8.5V43.5H7.5ZM7.5 47.5V49.5H8.5V47.5H7.5ZM7.5 51.5V53.5H8.5V51.5H7.5ZM7.5 55.5V57.5H8.5V55.5H7.5ZM7.5 59.5V61.5H8.5V59.5H7.5ZM7.5 63.5V65.5H8.5V63.5H7.5ZM7.5 67.5V69.5H8.5V67.5H7.5ZM7.5 71.5V73.5H8.5V71.5H7.5ZM7.5 75.5V77.5H8.5V75.5H7.5ZM7.5 79.5V81.5H8.5V79.5H7.5Z" fill="white"/>
<path d="M8 86.5C3.59 86.5 0 90.09 0 94.5C0 98.91 4 103 8 106.5C12 103 16 98.71 16 94.5C16 90.29 12.41 86.5 8 86.5ZM8 98.5C5.79 98.5 4 96.71 4 94.5C4 92.29 5.79 90.5 8 90.5C10.21 90.5 12 92.29 12 94.5C12 96.71 10.21 98.5 8 98.5Z" fill="white"/>
</svg>
