<svg width="16" height="123" viewBox="0 0 16 123" fill="none" xmlns="http://www.w3.org/2000/svg">
<path d="M5 65.5C4.7 65.5 4.5 65.4 4.3 65.2C3.9 64.8 3.9 64.2 4.3 63.8L10.3 57.8C10.7 57.4 11.3 57.4 11.7 57.8C12.1 58.2 12.1 58.8 11.7 59.2L5.7 65.2C5.5 65.4 5.3 65.5 5 65.5Z" fill="white"/>
<path d="M8 103C3.6 103 0 106.6 0 111C0 115.2 4 119.5 8 123C12 119.5 16 115.2 16 111C16 106.6 12.4 103 8 103ZM8 115C5.8 115 4 113.2 4 111C4 108.8 5.8 107 8 107C10.2 107 12 108.8 12 111C12 113.2 10.2 115 8 115Z" fill="white"/>
<path d="M8 16C3.6 16 0 12.4 0 8C0 3.6 3.6 0 8 0C12.4 0 16 3.6 16 8C16 12.4 12.4 16 8 16ZM8 2C4.7 2 2 4.7 2 8C2 11.3 4.7 14 8 14C11.3 14 14 11.3 14 8C14 4.7 11.3 2 8 2Z" fill="white"/>
<path d="M8 12C10.2091 12 12 10.2091 12 8C12 5.79086 10.2091 4 8 4C5.79086 4 4 5.79086 4 8C4 10.2091 5.79086 12 8 12Z" fill="white"/>
<path d="M8 22.3C6.5 22.3 5.3 23.5 5.3 25C5.3 26.5 6.5 27.7 8 27.7C9.5 27.7 10.7 26.5 10.7 25C10.7 23.5 9.5 22.3 8 22.3ZM7.5 25V26H8.5V25H7.5ZM7.5 28V30H8.5V28H7.5ZM7.5 31.9V33.9H8.5V31.9H7.5ZM7.5 35.8V37.8H8.5V35.8H7.5ZM7.5 39.8V41.8H8.5V39.8H7.5ZM7.5 43.7V45.7H8.5V43.7H7.5ZM7.5 47.7V49.7H8.5V47.7H7.5ZM7.5 51.6V53.6H8.5V51.6H7.5ZM7.5 55.6V57.6H8.5V55.6H7.5ZM7.5 59.5V61.5H8.5V59.5H7.5Z" fill="white"/>
<path d="M11 65.5C10.7 65.5 10.5 65.4 10.3 65.2L4.3 59.2C3.9 58.8 3.9 58.2 4.3 57.8C4.7 57.4 5.3 57.4 5.7 57.8L11.7 63.8C12.1 64.2 12.1 64.8 11.7 65.2C11.5 65.4 11.3 65.5 11 65.5Z" fill="white"/>
</svg>
