<svg width="16" height="121" viewBox="0 0 16 121" fill="none" xmlns="http://www.w3.org/2000/svg">
<path d="M8 16C3.59 16 0 12.41 0 8C0 3.59 3.59 0 8 0C12.41 0 16 3.59 16 8C16 12.41 12.41 16 8 16ZM8 2C4.69 2 2 4.69 2 8C2 11.31 4.69 14 8 14C11.31 14 14 11.31 14 8C14 4.69 11.31 2 8 2Z" fill="#0EA0CE"/>
<path d="M8 12C10.2091 12 12 10.2091 12 8C12 5.79086 10.2091 4 8 4C5.79086 4 4 5.79086 4 8C4 10.2091 5.79086 12 8 12Z" fill="#0EA0CE"/>
<path d="M8 22.33C6.53 22.33 5.33 23.52 5.33 25C5.33 26.48 6.52 27.67 8 27.67C9.48 27.67 10.67 26.48 10.67 25C10.67 23.52 9.48 22.33 8 22.33ZM8 51.33C6.53 51.33 5.33 52.52 5.33 54C5.33 55.48 6.52 56.67 8 56.67C9.48 56.67 10.67 55.48 10.67 54C10.67 52.52 9.48 51.33 8 51.33ZM7.5 25V26.04H8.5V25H7.5ZM7.5 28.11V30.18H8.5V28.11H7.5ZM7.5 32.25V34.32H8.5V32.25H7.5ZM7.5 36.39V38.46H8.5V36.39H7.5ZM7.5 40.54V42.61H8.5V40.54H7.5ZM7.5 44.68V46.75H8.5V44.68H7.5ZM7.5 48.82V50.89H8.5V48.82H7.5ZM7.5 52.96V54H8.5V52.96H7.5Z" fill="#0EA0CE"/>
<path d="M8 94L10.89 89H5.12L8.01 94H8ZM7.5 59V59.97H8.5V59H7.5ZM7.5 61.92V63.86H8.5V61.92H7.5ZM7.5 65.81V67.75H8.5V65.81H7.5ZM7.5 69.69V71.63H8.5V69.69H7.5ZM7.5 73.58V75.52H8.5V73.58H7.5ZM7.5 77.47V79.41H8.5V77.47H7.5ZM7.5 81.36V83.3H8.5V81.36H7.5ZM7.5 85.25V87.19H8.5V85.25H7.5ZM7.5 89.14V91.08H8.5V89.14H7.5Z" fill="#0EA0CE"/>
<path d="M8 101C3.59 101 0 104.59 0 109C0 113.41 4 117.5 8 121C12 117.5 16 113.21 16 109C16 104.79 12.41 101 8 101ZM8 113C5.79 113 4 111.21 4 109C4 106.79 5.79 105 8 105C10.21 105 12 106.79 12 109C12 111.21 10.21 113 8 113Z" fill="#00A877"/>
</svg>
