<svg width="24" height="25" viewBox="0 0 24 25" fill="none" xmlns="http://www.w3.org/2000/svg">
<g clip-path="url(#clip0_1348_2652)">
<path d="M14.36 20.4355H7C4.79 20.4355 3 18.6455 3 16.4355V8.43555C3 6.22555 4.79 4.43555 7 4.43555H15C17.21 4.43555 19 6.22555 19 8.43555V13.9755" stroke="#D29A0B" stroke-width="2" stroke-miterlimit="10" stroke-linecap="round" stroke-linejoin="round"/>
<path d="M7 3.43555V5.43555" stroke="#D29A0B" stroke-width="2" stroke-miterlimit="10" stroke-linecap="round" stroke-linejoin="round"/>
<path d="M15 3.43555V5.43555" stroke="#D29A0B" stroke-width="2" stroke-miterlimit="10" stroke-linecap="round" stroke-linejoin="round"/>
<path d="M4 9.43555H18" stroke="#D29A0B" stroke-width="2" stroke-miterlimit="10" stroke-linecap="round" stroke-linejoin="round"/>
<path d="M17 21.4355C19.2091 21.4355 21 19.6447 21 17.4355C21 15.2264 19.2091 13.4355 17 13.4355C14.7909 13.4355 13 15.2264 13 17.4355C13 19.6447 14.7909 21.4355 17 21.4355Z" stroke="#D29A0B" stroke-width="2" stroke-miterlimit="10" stroke-linecap="round" stroke-linejoin="round"/>
<path d="M15.88 17.4355L16.62 18.1855L18.12 16.6855" stroke="#D29A0B" stroke-width="2" stroke-miterlimit="10" stroke-linecap="round" stroke-linejoin="round"/>
</g>
<defs>
<clipPath id="clip0_1348_2652">
<rect width="24" height="24" fill="white" transform="translate(0 0.435547)"/>
</clipPath>
</defs>
</svg>
