<svg width="18" height="18" viewBox="0 0 18 18" fill="none" xmlns="http://www.w3.org/2000/svg">
<path d="M8.99935 0.666992C4.40768 0.666992 0.666016 4.40866 0.666016 9.00033C0.666016 13.592 4.40768 17.3337 8.99935 17.3337C13.591 17.3337 17.3327 13.592 17.3327 9.00033C17.3327 4.40866 13.591 0.666992 8.99935 0.666992ZM12.091 7.92533L8.75768 11.2587C8.59102 11.417 8.38268 11.5003 8.16602 11.5003C7.94935 11.5003 7.74102 11.417 7.57435 11.2587L5.90768 9.59199C5.58268 9.26699 5.58268 8.74199 5.90768 8.41699C6.23268 8.09199 6.75768 8.09199 7.08268 8.41699L8.16602 9.49199L10.9077 6.75033C11.2327 6.42533 11.7577 6.42533 12.0827 6.75033C12.4077 7.07533 12.416 7.60033 12.091 7.92533Z" fill="#A7A7A7"/>
</svg>
