<svg width="6" height="67" viewBox="0 0 6 67" fill="none" xmlns="http://www.w3.org/2000/svg">
<path d="M0.333333 2.93555C0.333333 4.40831 1.52724 5.60221 3 5.60221C4.47276 5.60221 5.66667 4.40831 5.66667 2.93555C5.66667 1.46279 4.47276 0.26888 3 0.26888C1.52724 0.26888 0.333333 1.46279 0.333333 2.93555ZM3 66.9355L5.88675 61.9355H0.11325L3 66.9355ZM2.5 2.93555L2.5 3.93555H3.5L3.5 2.93555L2.5 2.93555ZM2.5 5.93555L2.5 7.93555H3.5L3.5 5.93555H2.5ZM2.5 9.93555L2.5 11.9355H3.5L3.5 9.93555H2.5ZM2.5 13.9355L2.5 15.9355H3.5L3.5 13.9355H2.5ZM2.5 17.9355L2.5 19.9355H3.5L3.5 17.9355H2.5ZM2.5 21.9355L2.5 23.9355H3.5L3.5 21.9355H2.5ZM2.5 25.9355L2.5 27.9355H3.5L3.5 25.9355H2.5ZM2.5 29.9355L2.5 31.9355H3.5L3.5 29.9355H2.5ZM2.5 33.9355L2.5 35.9355H3.5L3.5 33.9355H2.5ZM2.5 37.9355L2.5 39.9355H3.5L3.5 37.9355H2.5ZM2.5 41.9355L2.5 43.9355H3.5L3.5 41.9355H2.5ZM2.5 45.9355L2.5 47.9355H3.5L3.5 45.9355H2.5ZM2.5 49.9355L2.5 51.9355H3.5L3.5 49.9355H2.5ZM2.5 53.9355L2.5 55.9355H3.5L3.5 53.9355H2.5ZM2.5 57.9355L2.5 59.9355H3.5L3.5 57.9355H2.5ZM2.5 61.9355L2.5 63.9355H3.5L3.5 61.9355H2.5Z" fill="white"/>
</svg>
