<svg width="24" height="25" viewBox="0 0 24 25" fill="none" xmlns="http://www.w3.org/2000/svg">
<path d="M21.5625 8.2793C22.0285 8.2793 22.4062 7.90154 22.4062 7.43555C22.4062 6.96956 22.0285 6.5918 21.5625 6.5918V8.2793ZM1.875 7.43555C1.875 9.92083 3.88972 11.9355 6.375 11.9355C8.86028 11.9355 10.875 9.92083 10.875 7.43555C10.875 4.95027 8.86028 2.93555 6.375 2.93555C3.88972 2.93555 1.875 4.95027 1.875 7.43555ZM3 15.5918C2.53401 15.5918 2.15625 15.9696 2.15625 16.4355C2.15625 16.9015 2.53401 17.2793 3 17.2793V15.5918ZM13.125 16.4355C13.125 18.9208 15.1397 20.9355 17.625 20.9355C20.1103 20.9355 22.125 18.9208 22.125 16.4355C22.125 13.9503 20.1103 11.9355 17.625 11.9355C15.1397 11.9355 13.125 13.9503 13.125 16.4355ZM21.5625 6.5918H6.375V8.2793H21.5625V6.5918ZM3 17.2793H17.625V15.5918H3V17.2793Z" fill="#0EA0CE"/>
</svg>
