<svg width="20" height="20" viewBox="0 0 20 20" fill="none" xmlns="http://www.w3.org/2000/svg">
<path fill-rule="evenodd" clip-rule="evenodd" d="M16.03 14.61L19.71 18.29C20.1 18.68 20.1 19.32 19.71 19.71C19.51 19.9 19.26 20 19 20C18.74 20 18.49 19.9 18.29 19.71L14.61 16.03C13.07 17.26 11.12 18 9 18C4.04 18 0 13.96 0 9C0 4.04 4.04 0 9 0C13.96 0 18 4.04 18 9C18 11.12 17.26 13.07 16.03 14.61ZM9 15C12.3137 15 15 12.3137 15 9C15 5.68629 12.3137 3 9 3C5.68629 3 3 5.68629 3 9C3 12.3137 5.68629 15 9 15Z" fill="#E3E3E3"/>
</svg>
