<svg width="21" height="25" viewBox="0 0 21 25" fill="none" xmlns="http://www.w3.org/2000/svg">
<path d="M19.5347 8.72516C19.3972 8.83196 16.9694 10.2014 16.9694 13.2464C16.9694 16.7685 20.0586 18.0145 20.1511 18.0454C20.1369 18.1213 19.6603 19.7518 18.5223 21.4132C17.5076 22.8752 16.4478 24.3348 14.8355 24.3348C13.2233 24.3348 12.8084 23.3973 10.9473 23.3973C9.13353 23.3973 8.48865 24.3657 7.01395 24.3657C5.53925 24.3657 4.51028 23.0129 3.3272 21.3515C1.95682 19.4006 0.849609 16.3698 0.849609 13.4933C0.849609 8.87943 3.84643 6.43249 6.79583 6.43249C8.36299 6.43249 9.66936 7.46253 10.6533 7.46253C11.5898 7.46253 13.0503 6.37078 14.8332 6.37078C15.5089 6.37078 17.9367 6.43249 19.5347 8.72516ZM13.9868 4.41749C14.7241 3.54172 15.2457 2.32655 15.2457 1.11139C15.2457 0.942877 15.2315 0.771994 15.2007 0.634338C14.001 0.679432 12.5737 1.43416 11.7131 2.43335C11.0374 3.20233 10.4067 4.41749 10.4067 5.64927C10.4067 5.8344 10.4375 6.01952 10.4518 6.07885C10.5276 6.09309 10.6509 6.10971 10.7742 6.10971C11.8506 6.10971 13.2044 5.3882 13.9868 4.41749Z" fill="black"/>
</svg>
