<svg width="131" height="9" viewBox="0 0 131 9" fill="none" xmlns="http://www.w3.org/2000/svg">
<path d="M0.833333 4.5C0.833333 5.97276 2.02724 7.16667 3.5 7.16667C4.97276 7.16667 6.16667 5.97276 6.16667 4.5C6.16667 3.02724 4.97276 1.83333 3.5 1.83333C2.02724 1.83333 0.833333 3.02724 0.833333 4.5ZM3.5 5H4.9825V4H3.5V5ZM7.9475 5H10.9125V4H7.9475V5ZM13.8775 5H16.8425V4H13.8775V5ZM19.8075 5H22.7725V4H19.8075V5ZM25.7375 5H28.7025V4H25.7375V5ZM31.6675 5H34.6325V4H31.6675V5ZM37.5975 5H40.5625V4H37.5975V5ZM43.5275 5H46.4925V4H43.5275V5ZM49.4575 5H52.4225V4H49.4575V5ZM55.3875 5H58.3525V4H55.3875V5ZM61.3175 5H64.2825V4H61.3175V5ZM67.2475 5H70.2125V4H67.2475V5ZM73.1775 5H76.1425V4H73.1775V5ZM79.1075 5H82.0725V4H79.1075V5ZM85.0375 5H88.0025V4H85.0375V5ZM90.9675 5H93.9325V4H90.9675V5ZM96.8975 5H99.8625V4H96.8975V5ZM102.827 5H105.792V4H102.827V5ZM108.757 5H111.722V4H108.757V5ZM114.687 5H117.652V4H114.687V5ZM120.617 5H122.1V4H120.617V5Z" fill="#0EA0CE"/>
<path d="M127.3 0.5C125.536 0.5 124.1 1.936 124.1 3.7C124.1 5.384 125.7 7.1 127.3 8.5C128.9 7.1 130.5 5.384 130.5 3.7C130.5 1.936 129.064 0.5 127.3 0.5ZM127.3 5.3C126.416 5.3 125.7 4.584 125.7 3.7C125.7 2.816 126.416 2.1 127.3 2.1C128.184 2.1 128.9 2.816 128.9 3.7C128.9 4.584 128.184 5.3 127.3 5.3Z" fill="#0EA0CE"/>
</svg>
