<svg width="34" height="34" viewBox="0 0 34 34" fill="none" xmlns="http://www.w3.org/2000/svg">
<path d="M17 2.83333C9.19415 2.83333 2.83331 9.19416 2.83331 17C2.83331 24.8058 9.19415 31.1667 17 31.1667C24.8058 31.1667 31.1666 24.8058 31.1666 17C31.1666 9.19416 24.8058 2.83333 17 2.83333ZM22.2558 16.5892C21.9725 16.8583 21.6183 17 21.25 17C20.8816 17 20.5275 16.8583 20.2441 16.5892L18.4166 14.7475V22.6667C18.4166 23.4458 17.7791 24.0833 17 24.0833C16.2208 24.0833 15.5833 23.4458 15.5833 22.6667V14.7475L13.7558 16.575C13.2033 17.1275 12.3108 17.1275 11.7583 16.575C11.2058 16.0225 11.2058 15.13 11.7583 14.5775L16.0083 10.3275C16.1358 10.2 16.2916 10.0867 16.4758 10.0158C16.8158 9.87416 17.2125 9.87416 17.5525 10.0158C17.7225 10.0867 17.8783 10.1858 18.02 10.3275L22.27 14.5775C22.8083 15.13 22.8083 16.0367 22.2558 16.5892Z" fill="#0EA0CE"/>
</svg>
