<svg width="34" height="34" viewBox="0 0 34 34" fill="none" xmlns="http://www.w3.org/2000/svg">
<path d="M17 2.83334C9.19421 2.83334 2.83337 9.19418 2.83337 17C2.83337 24.8058 9.19421 31.1667 17 31.1667C24.8059 31.1667 31.1667 24.8058 31.1667 17C31.1667 9.19418 24.8059 2.83334 17 2.83334ZM22.2559 16.5892C21.9725 16.8583 21.6184 17 21.25 17C20.8817 17 20.5275 16.8583 20.2442 16.5892L18.4167 14.7475V22.6667C18.4167 23.4458 17.7792 24.0833 17 24.0833C16.2209 24.0833 15.5834 23.4458 15.5834 22.6667V14.7475L13.7559 16.575C13.2034 17.1275 12.3109 17.1275 11.7584 16.575C11.2059 16.0225 11.2059 15.13 11.7584 14.5775L16.0084 10.3275C16.1359 10.2 16.2917 10.0867 16.4759 10.0158C16.8159 9.87418 17.2125 9.87418 17.5525 10.0158C17.7225 10.0867 17.8784 10.1858 18.02 10.3275L22.27 14.5775C22.8084 15.13 22.8084 16.0367 22.2559 16.5892Z" fill="#A7A7A7"/>
</svg>
