<svg width="38" height="38" viewBox="0 0 38 38" fill="none" xmlns="http://www.w3.org/2000/svg">
<path d="M19 0.666992C8.89829 0.666992 0.666626 8.89866 0.666626 19.0003C0.666626 29.102 8.89829 37.3337 19 37.3337C29.1016 37.3337 37.3333 29.102 37.3333 19.0003C37.3333 8.89866 29.1016 0.666992 19 0.666992ZM26.3333 20.8337H20.8333V26.3337C20.8333 27.342 20.0083 28.167 19 28.167C17.9916 28.167 17.1666 27.342 17.1666 26.3337V20.8337H11.6666C10.6583 20.8337 9.83329 20.0087 9.83329 19.0003C9.83329 17.992 10.6583 17.167 11.6666 17.167H17.1666V11.667C17.1666 10.6587 17.9916 9.83366 19 9.83366C20.0083 9.83366 20.8333 10.6587 20.8333 11.667V17.167H26.3333C27.3416 17.167 28.1666 17.992 28.1666 19.0003C28.1666 20.0087 27.3416 20.8337 26.3333 20.8337Z" fill="#454545"/>
</svg>
