<svg width="26" height="26" viewBox="0 0 26 26" fill="none" xmlns="http://www.w3.org/2000/svg">
<rect width="26" height="26" rx="13" fill="white"/>
<path d="M12.9994 3C7.48891 3 2.99854 7.49037 2.99854 13.0008C2.99854 18.5113 7.48891 23.0017 12.9994 23.0017C18.5098 23.0017 23.0002 18.5113 23.0002 13.0008C23.0002 7.49037 18.5098 3 12.9994 3ZM16.7097 11.7107L12.7093 15.7111C12.5093 15.9011 12.2593 16.0011 11.9993 16.0011C11.7393 16.0011 11.4892 15.9011 11.2892 15.7111L9.28906 13.7109C8.89903 13.3209 8.89903 12.6908 9.28906 12.3008C9.67909 11.9107 10.3091 11.9107 10.6992 12.3008L11.9993 13.5909L15.2896 10.3006C15.6796 9.91058 16.3096 9.91058 16.6997 10.3006C17.0897 10.6906 17.0997 11.3207 16.7097 11.7107Z" fill="#00A877"/>
</svg>
